<?xml version="1.0" encoding="UTF-8" standalone="no"?><!DOCTYPE svg PUBLIC "-//W3C//DTD SVG 1.1//EN" "http://www.w3.org/Graphics/SVG/1.1/DTD/svg11.dtd"><svg width="100%" height="100%" viewBox="0 0 4000 4000" version="1.1" xmlns="http://www.w3.org/2000/svg" xmlns:xlink="http://www.w3.org/1999/xlink" xml:space="preserve" xmlns:serif="http://www.serif.com/" style="fill-rule:evenodd;clip-rule:evenodd;stroke-linejoin:round;stroke-miterlimit:2;"><g><path d="M2304.318,3342.536l0,-1202.349c0,-53.12 6.772,-104.738 19.529,-154.034c55.228,-213.676 222.484,-383.559 434.677,-442.557c4.86,-1.34 9.756,-2.644 14.669,-3.878l323.631,-86.728l603.452,-161.682l305.586,-81.886l0,-551.958l-1372.732,367.817l-12.597,3.377c-250.965,68.807 -468.429,220.894 -620.48,424.332c-56.121,75.114 -103.345,157.215 -140.044,244.711c-38.129,90.927 -64.894,187.679 -78.527,288.451c-6.808,50.404 -10.327,101.826 -10.327,154.034l0,1202.349l533.162,0Z" style="fill:#fff;"/><path d="M533.162,1634.63c-140.938,90.391 -261.132,210.602 -351.531,351.523c-114.875,179.085 -181.629,391.617 -181.631,618.997l0,737.386l533.162,0l0,-737.386c0,-340.445 278.534,-618.997 618.997,-618.997c201.615,0 381.522,97.681 494.729,248.07l0,-94.036c0,-51.476 3.091,-102.934 9.309,-154.034c0.679,-5.557 1.394,-11.096 2.144,-16.635c14.848,-109.974 44.15,-217.553 87.068,-319.879c3.448,-8.219 6.986,-16.42 10.613,-24.568c-175.869,-109.009 -382.862,-172.08 -603.863,-172.08c-227.38,0 -439.93,66.752 -618.997,181.639Z" style="fill:#fff;"/><rect x="3472.701" y="2809.391" width="533.162" height="533.144" style="fill:#fff;"/><rect x="3472.701" y="999.088" width="533.162" height="1918.365" style="fill:#fff;"/></g></svg>